<?xml version="1.0" encoding="utf-8"?>
<!-- Generator: Adobe Illustrator 22.0.1, SVG Export Plug-In . SVG Version: 6.00 Build 0)  -->
<svg version="1.1" id="Layer_1" xmlns="http://www.w3.org/2000/svg" xmlns:xlink="http://www.w3.org/1999/xlink" x="0px" y="0px"
	 viewBox="0 0 32.9 35" style="enable-background:new 0 0 32.9 35;" xml:space="preserve">
<style type="text/css">
	.st0{fill:#00D66C;}
	.st1{fill:#FFFFFF;}
</style>
<path class="st0" d="M32.4,17.5c0-8.9-7-16-15.9-16S0.5,8.6,0.5,17.5c0,8.9,7,16,15.9,16C25.3,33.5,32.4,26.4,32.4,17.5L32.4,17.5
	L32.4,17.5z"/>
<path class="st1" d="M23.5,19.8h-0.9c-0.9,0-1.3,0.5-1.4,1.4c-0.2,1.7-1.6,2.8-3.3,2.8c-2,0-3.4-1.5-3.4-3.7v-5.1
	c0-0.2,0-0.4-0.1-0.5c0.2,0.1,0.4,0.1,0.7,0.1h4.7c0.9,0,1.4-0.5,1.4-1.4V13c0-0.9-0.5-1.4-1.4-1.4h-2.7V8.7c0-0.9-0.5-1.4-1.4-1.4
	h-0.6c-0.9,0-1.4,0.5-1.4,1.4v4.7c0,0.2,0,0.4,0.1,0.5c-0.2-0.1-0.5-0.1-0.7-0.1H8.4c-0.9,0-1.4,0.5-1.4,1.4v0.4
	c0,0.9,0.5,1.4,1.4,1.4H11v3.3c0,4.1,2.7,7,6.8,7c3.9,0,6.4-2.5,6.9-6.2C24.9,20.3,24.3,19.8,23.5,19.8L23.5,19.8z"/>
</svg>
